<svg xmlns="http://www.w3.org/2000/svg" viewBox="0 0 45.908 22">
  <g fill="#212539">
    <path d="M28.74 15.092a8.18 8.18 0 1 0-11.57 0l1.164-1.166a6.503 6.503 0 0 1-1.918-4.62c0-3.605 2.927-6.527 6.537-6.527S29.49 5.7 29.49 9.306a6.505 6.505 0 0 1-1.914 4.616l1.163 1.17zM8.707 11.678h-7.31L1 10.528 8.845 1h1.387v9.37h2.14v1.31h-2.14v3.288H8.707v-3.29zm0-1.307V3.22l-5.824 7.15h5.824zm32.535 1.307h-7.31l-.396-1.15L41.38 1h1.388v9.37h2.14v1.31h-2.14v3.288h-1.525v-3.29zm0-1.307V3.22l-5.824 7.15h5.824zM1.205 17.67h1.29c.77 0 1.245.435 1.245 1.094v.01c0 .734-.59 1.118-1.31 1.118h-.65v1.053h-.575V17.67zm1.245 1.7c.434 0 .706-.243.706-.585v-.01c0-.384-.276-.585-.707-.585h-.67v1.18h.67zm2.712-1.725h.533l1.44 3.298H6.53l-.333-.79h-1.55l-.336.79h-.59l1.442-3.298zm.824 1.998l-.566-1.31-.56 1.31h1.126zm1.361-.327v-.01c0-.917.702-1.694 1.69-1.694.57 0 .92.16 1.257.444l-.365.436c-.254-.215-.502-.35-.918-.35-.603 0-1.062.528-1.062 1.155v.01c0 .674.444 1.17 1.114 1.17.31 0 .59-.098.79-.248v-.614h-.836v-.5h1.395v1.374a2.09 2.09 0 0 1-1.367.51c-1.024 0-1.7-.73-1.7-1.684zm3.813-1.646h2.43v.514h-1.854v.852h1.642v.515h-1.642v.88h1.876v.516H11.16V17.67zm4.54 0h.532l1.755 2.264V17.67h.566v3.275h-.482l-1.805-2.33v2.33H15.7V17.67zm3.55 1.646v-.01c0-.922.712-1.694 1.718-1.694 1.005 0 1.708.762 1.708 1.684v.01c0 .922-.71 1.694-1.717 1.694-1.008 0-1.71-.762-1.71-1.684zm2.822 0v-.01c0-.637-.463-1.165-1.114-1.165s-1.104.52-1.104 1.157v.01c0 .637.463 1.16 1.114 1.16.65 0 1.104-.515 1.104-1.15zM24 18.202h-1.04v-.533h2.658v.532h-1.04v2.742H24v-2.741zm3.63-.532h2.438v.523h-1.862v.894h1.652v.524h-1.652v1.334h-.575V17.67zm2.896 1.646v-.01c0-.922.71-1.694 1.717-1.694 1.006 0 1.708.762 1.708 1.684v.01c0 .922-.71 1.694-1.716 1.694s-1.708-.762-1.708-1.684zm2.822 0v-.01c0-.637-.463-1.165-1.114-1.165-.65 0-1.104.52-1.104 1.157v.01c0 .637.463 1.16 1.114 1.16.65 0 1.104-.515 1.104-1.15zm1.249.239V17.67h.575v1.862c0 .61.313.93.828.93.51 0 .824-.303.824-.907V17.67h.576v1.857c0 .978-.552 1.47-1.41 1.47-.85 0-1.393-.493-1.393-1.442zm3.593-1.885h.534l1.755 2.264V17.67h.565v3.275h-.482l-1.806-2.33v2.33h-.567V17.67zm3.697 0h1.222c1.028 0 1.74.705 1.74 1.627v.01c0 .922-.71 1.638-1.74 1.638h-1.223V17.67zm.575.523v2.227h.645c.688 0 1.137-.463 1.137-1.104v-.01c0-.64-.45-1.114-1.137-1.114h-.645z"/>
  </g>
</svg>
